<svg version="1.1" id="Layer_1" xmlns="http://www.w3.org/2000/svg" xmlns:xlink="http://www.w3.org/1999/xlink" x="0px" y="0px"
	 width="100%" viewBox="0 0 500 500" enable-background="new 0 0 500 500" xml:space="preserve">
<path fill="#000000" opacity="1.000000" stroke="none" 
	d="
M247.000000,501.000000 
	C164.666687,501.000000 82.833374,501.000000 1.000044,501.000000 
	C1.000029,334.333405 1.000029,167.666779 1.000015,1.000133 
	C167.666565,1.000089 334.333130,1.000089 500.999756,1.000044 
	C500.999847,167.666519 500.999847,334.333038 500.999939,500.999786 
	C416.500000,501.000000 332.000000,501.000000 247.000000,501.000000 
M305.042114,233.442474 
	C311.997192,224.665054 313.194366,214.729004 308.774231,204.875687 
	C304.130005,194.522919 295.952271,188.531296 283.843262,187.859833 
	C266.966553,186.923996 251.981827,200.553375 255.081207,221.527237 
	C256.071228,228.226807 259.482300,233.818314 264.861847,237.933777 
	C277.436005,247.553299 294.978333,246.040070 305.042114,233.442474 
M198.997528,196.504059 
	C188.169830,205.411194 189.068909,225.769333 198.559677,235.445847 
	C209.918655,247.027191 228.535248,246.350693 239.285034,236.145569 
	C250.443420,225.552567 249.062927,205.435776 239.366791,195.657288 
	C229.517258,185.724121 208.823441,184.829483 198.997528,196.504059 
M162.000000,247.436188 
	C162.014496,249.602310 161.916367,251.776093 162.063187,253.933212 
	C162.666824,262.801575 169.398422,268.610382 178.250595,267.925201 
	C181.330704,267.686768 183.800415,266.671600 183.947006,262.965088 
	C184.076813,259.683350 182.936691,257.452942 179.392731,256.990234 
	C174.686432,256.375763 172.978088,253.384918 173.005508,248.962738 
	C173.038574,243.630508 173.403885,238.261139 172.917572,232.972946 
	C171.881378,221.705444 171.632553,210.507019 172.895538,199.225616 
	C173.503586,193.794327 173.074799,188.237885 172.984161,182.740280 
	C172.910095,178.248749 174.531677,175.353546 179.389191,174.941849 
	C182.996613,174.636078 184.071854,172.281708 183.943726,169.019653 
	C183.803253,165.443008 181.744370,164.176804 178.413818,164.000427 
	C169.008240,163.502396 162.295456,169.411270 162.056351,178.861588 
	C161.858307,186.688858 161.922226,194.525772 162.024414,202.356400 
	C162.079239,206.557861 160.828262,209.457016 156.224960,210.207596 
	C153.140411,210.710526 151.070740,212.354599 151.063934,215.881088 
	C151.056900,219.521149 153.337906,220.730545 156.386917,221.336380 
	C160.549286,222.163452 162.041656,224.952271 162.000961,228.957611 
	C161.941681,234.789352 161.994812,240.622223 162.000000,247.436188 
M344.541229,209.990143 
	C340.343506,209.278687 340.057312,206.052368 340.030579,202.786057 
	C339.965118,194.792236 340.148041,186.793549 339.939880,178.804428 
	C339.694305,169.379395 332.937653,163.478256 323.542542,164.001770 
	C320.199005,164.188080 318.182709,165.496170 318.054138,169.058487 
	C317.936035,172.331039 319.048279,174.644196 322.644501,174.948517 
	C327.509460,175.360199 329.082916,178.292236 329.017273,182.768051 
	C328.926910,188.929001 328.487915,195.144897 329.116455,201.242615 
	C330.124786,211.024811 330.371979,220.679520 329.144196,230.484894 
	C328.363861,236.717102 328.991486,243.124405 328.969116,249.453125 
	C328.955017,253.446274 327.298737,256.306610 323.110657,256.870392 
	C319.086060,257.412201 317.684296,259.716522 318.106232,263.441406 
	C318.558655,267.435211 321.580139,267.936859 324.722778,267.927673 
	C333.840027,267.901093 339.751129,262.172577 339.950684,252.972916 
	C340.124023,244.982162 340.046722,236.984802 339.997620,228.990875 
	C339.973083,225.002258 341.403961,222.185867 345.575684,221.347214 
	C348.602051,220.738815 350.930542,219.575531 350.934143,215.924820 
	C350.937958,212.103653 348.567352,210.724609 344.541229,209.990143 
M131.987137,299.538147 
	C129.533890,295.798981 132.172546,287.676788 122.594620,289.606171 
	C125.205437,298.987854 127.806587,308.334778 130.365982,317.531677 
	C132.518280,317.531677 134.612457,317.531677 136.399338,317.531677 
	C137.614746,312.221283 138.805984,307.016510 140.330872,300.353912 
	C141.988098,307.139526 143.278458,312.422943 144.524750,317.525940 
	C146.459900,317.623352 148.459686,317.724030 150.376190,317.820526 
	C152.898697,308.326141 155.417297,298.846466 157.887329,289.549591 
	C155.437408,289.549591 153.440079,289.549591 151.346924,289.549591 
	C150.214279,294.237305 149.006668,299.235321 147.582214,305.130768 
	C146.214584,300.118805 144.838715,296.110260 144.095367,291.987671 
	C143.603027,289.257141 142.355637,288.694550 140.214447,289.642517 
	C138.993134,290.183228 137.469223,291.174194 137.097641,292.298279 
	C135.716202,296.477295 134.755997,300.795532 133.515930,305.525696 
	C132.908234,303.435699 132.458176,301.887848 131.987137,299.538147 
M248.951599,290.207123 
	C243.184189,288.048615 237.537445,288.428253 233.069061,292.694916 
	C229.231613,296.359161 227.223785,301.250092 228.500366,306.794006 
	C229.987534,313.252350 235.290024,317.688843 241.548370,317.975098 
	C248.411835,318.289062 253.980621,314.521362 256.092896,308.134552 
	C258.463226,300.967468 256.253265,294.917816 248.951599,290.207123 
M198.344360,316.107544 
	C201.629547,313.936127 203.056351,310.595581 201.863556,307.128967 
	C200.241074,302.413483 198.508820,297.828247 198.209198,292.779022 
	C198.161362,291.972992 196.851883,290.702728 195.989014,290.575745 
	C191.838074,289.964874 187.641785,289.472015 183.457825,289.440887 
	C182.647919,289.434845 181.186890,291.636993 181.114777,292.883545 
	C180.836929,297.685913 181.000244,302.513855 181.000092,307.332245 
	C180.999771,318.625610 184.052643,320.723175 195.349197,317.215240 
	C196.135010,316.971161 196.962128,316.860107 198.344360,316.107544 
M281.997131,295.741089 
	C281.722870,293.438995 282.728027,289.956421 278.842316,290.449493 
	C277.695709,290.595001 276.536499,293.721252 276.110748,295.642761 
	C275.639648,297.768951 276.003113,300.080048 276.003113,302.310638 
	C275.578522,302.419159 275.153931,302.527710 274.729340,302.636230 
	C272.600342,299.342682 270.679443,295.883057 268.245392,292.832916 
	C267.193115,291.514282 265.099976,290.487213 263.442444,290.431366 
	C262.680603,290.405701 261.194580,293.009460 261.129425,294.469604 
	C260.862640,300.446838 260.830505,306.452698 261.146484,312.425049 
	C261.226074,313.929230 262.916016,315.348206 263.865936,316.806305 
	C264.907135,315.272278 266.509094,313.854614 266.857147,312.176788 
	C267.370056,309.704376 266.989502,307.046600 266.989502,304.467773 
	C267.426758,304.346497 267.863983,304.225250 268.301239,304.103973 
	C270.647766,307.613922 272.816315,311.265533 275.436310,314.557892 
	C276.367310,315.727844 278.432617,316.587189 279.907623,316.489777 
	C280.679230,316.438843 281.823029,314.030914 281.885193,312.646454 
	C282.123718,307.333191 281.992523,302.003357 281.997131,295.741089 
M294.965515,313.170044 
	C294.965515,310.323181 294.965515,307.476288 294.965515,304.629425 
	C298.542389,307.902100 300.688812,311.464844 303.303497,314.642303 
	C304.262268,315.807404 306.376434,316.624084 307.873169,316.500977 
	C308.674103,316.435089 309.834839,314.052216 309.883270,312.681366 
	C310.100342,306.535431 310.167480,300.366974 309.830292,294.231812 
	C309.753448,292.834167 307.852753,291.536804 306.791534,290.193268 
	C305.869812,291.508423 304.366852,292.734985 304.150085,294.157562 
	C303.727875,296.927612 304.026337,299.807526 304.026337,302.641937 
	C303.539246,302.699890 303.052155,302.757874 302.565063,302.815826 
	C300.238525,299.218933 298.077240,295.496155 295.488525,292.099030 
	C294.671967,291.027466 292.523590,290.125763 291.330292,290.443604 
	C290.306122,290.716400 289.175476,292.818573 289.127869,294.148865 
	C288.902008,300.460571 288.896484,306.790314 289.146912,313.100342 
	C289.196960,314.362061 290.705017,315.565948 291.540802,316.796478 
	C292.661499,315.872284 293.782196,314.948090 294.965515,313.170044 
M265.787781,172.139542 
	C266.139191,170.711914 267.154388,169.040771 266.734467,167.896118 
	C263.982727,160.395035 264.033203,153.058197 266.585388,145.492569 
	C266.983765,144.311707 265.281250,141.691284 263.883698,140.868164 
	C262.778351,140.217133 260.216003,140.762894 259.048065,141.704361 
	C251.962021,147.416489 249.385483,162.340454 253.870193,170.224060 
	C256.798035,175.370926 260.154572,176.116058 265.787781,172.139542 
M241.536011,143.012863 
	C234.944168,151.374252 232.768356,160.371582 237.720123,170.325439 
	C239.441422,173.785507 242.159500,176.131683 246.116882,174.493591 
	C249.988998,172.890823 251.533249,169.417831 249.898071,165.461685 
	C247.386139,159.384323 248.094284,153.582550 249.801956,147.484085 
	C250.328873,145.602325 249.292358,142.589111 247.889359,141.146896 
	C247.164474,140.401764 244.067856,141.963867 241.536011,143.012863 
M342.851746,308.556671 
	C340.550964,305.141205 340.490173,301.519592 342.732361,298.234619 
	C346.276520,293.042084 351.288910,295.624817 355.768463,296.545258 
	C357.648285,291.487274 356.753967,289.824860 352.040955,289.124023 
	C341.386108,287.539642 334.839783,293.595734 335.003723,304.885345 
	C335.139862,314.255707 343.713959,320.423645 352.619080,317.517609 
	C356.408386,316.281097 358.035126,313.953308 356.042358,309.488556 
	C351.710754,311.415588 347.276794,313.532776 342.851746,308.556671 
M212.053146,309.363586 
	C209.290802,305.551147 209.030457,301.519684 211.964691,297.869781 
	C215.450348,293.533936 219.918503,294.951477 224.452637,297.037018 
	C225.115250,293.654694 225.892517,290.693359 221.950256,289.333069 
	C217.006912,287.627441 208.751923,290.447754 205.865250,294.729340 
	C202.256882,300.081451 202.629013,308.878876 206.677109,313.923096 
	C209.754440,317.757660 217.584274,319.139648 222.867493,316.855499 
	C226.510437,315.280518 226.503387,312.836304 224.488892,311.341797 
	C220.525696,310.865814 216.562500,310.389862 212.053146,309.363586 
M329.545990,295.246918 
	C330.322723,294.105133 331.747711,292.924438 331.682190,291.833252 
	C331.624146,290.866486 329.982574,289.336975 328.910553,289.217407 
	C326.144409,288.908875 323.272827,289.548645 320.506073,289.242554 
	C317.098969,288.865540 315.973145,290.259155 316.001495,293.398865 
	C316.057098,299.549957 316.065247,305.702606 315.985748,311.853210 
	C315.946350,314.901550 316.665558,317.669037 320.269836,316.852661 
	C324.468719,315.901611 330.683899,320.648071 332.606079,312.830963 
	C332.659210,312.614960 332.286133,312.294128 331.957245,311.781128 
	C330.797058,311.834167 329.390717,312.242523 328.234222,311.871735 
	C326.445923,311.298309 323.868530,310.571625 323.339630,309.232849 
	C322.262238,306.505707 324.190094,305.197937 327.053070,304.873688 
	C330.493195,304.484070 330.212036,302.292938 329.093262,299.713684 
	C328.101837,299.759003 327.160889,300.073059 326.498962,299.772522 
	C325.332214,299.242706 324.335754,298.337830 323.268005,297.589966 
	C324.277679,296.750366 325.197388,295.741821 326.332336,295.137482 
	C326.965515,294.800323 327.956512,295.135040 329.545990,295.246918 
M161.000107,312.342468 
	C161.089600,313.782379 161.179092,315.222290 161.270935,316.699799 
	C166.679352,316.699799 171.746140,316.699799 176.792053,316.699799 
	C176.792053,314.769684 176.792053,313.141022 176.792053,311.740509 
	C173.552750,311.740509 170.517273,311.740509 167.271606,311.740509 
	C167.271606,309.495728 167.271606,307.441101 167.271606,305.174561 
	C169.953949,305.044891 172.387756,304.927216 175.081238,304.796967 
	C174.918610,302.882233 174.785492,301.314972 174.644897,299.659729 
	C171.862869,299.659729 169.544800,299.659729 166.915390,299.659729 
	C167.086731,297.903809 167.222290,296.514618 167.347092,295.235474 
	C170.351898,295.235474 172.933914,295.235474 175.726913,295.235474 
	C176.126434,293.427063 176.564880,291.442505 177.008560,289.434265 
	C171.552872,289.434265 166.460587,289.434265 161.000000,289.434265 
	C161.000000,296.783051 161.000000,304.076355 161.000107,312.342468 
M364.100311,295.846680 
	C364.375549,296.613892 364.873199,297.376282 364.890045,298.149139 
	C365.002289,303.301849 364.719452,308.486328 365.235107,313.592804 
	C365.387482,315.101532 367.699554,316.392151 369.021912,317.782715 
	C370.008606,316.374481 371.711060,315.031494 371.846466,313.545654 
	C372.237366,309.257050 372.069946,304.909332 371.979614,300.587799 
	C371.914215,297.459656 372.280304,295.011688 376.296814,294.752350 
	C377.205811,294.693665 378.331573,292.937927 378.682434,291.761932 
	C378.824127,291.287018 377.177979,289.637238 376.306122,289.605591 
	C370.728790,289.403198 365.140503,289.502411 359.924652,289.502411 
	C357.797729,294.364777 360.175262,295.242889 364.100311,295.846680 
M280.053650,331.698669 
	C274.301880,331.970795 277.472992,336.296570 277.235809,338.665680 
	C276.950409,341.516632 278.081421,344.502808 282.041321,343.868591 
	C283.326233,343.662811 285.354950,342.753662 285.523895,341.874329 
	C286.176025,338.479492 286.213928,334.966614 286.385315,332.738037 
	C283.697174,332.132965 282.118622,331.777679 280.053650,331.698669 
M245.998856,338.295898 
	C245.974930,336.637909 246.377304,334.813477 245.812424,333.366699 
	C245.193680,331.782074 243.681839,330.546173 242.559189,329.158295 
	C241.399643,330.506622 239.464661,331.737244 239.238403,333.227325 
	C238.733231,336.554230 239.080536,340.010620 239.080536,343.338501 
	C241.783020,343.338501 243.633286,343.338501 245.659058,343.338501 
	C245.786026,341.762329 245.891144,340.457550 245.998856,338.295898 
M190.469971,331.154602 
	C188.187424,332.868469 186.654694,341.416626 188.786438,342.813293 
	C190.114426,343.683350 193.258774,343.661285 194.323807,342.674805 
	C196.808884,340.373016 194.497192,332.676453 190.469971,331.154602 
M311.459015,331.843628 
	C309.385651,330.906128 307.415436,330.613129 307.150085,333.618347 
	C306.919830,336.225891 306.901245,338.900421 307.246674,341.484161 
	C307.366302,342.378723 308.838715,343.704346 309.732117,343.736023 
	C310.984467,343.780396 313.385590,342.757416 313.366974,342.263519 
	C313.240021,338.888245 312.608215,335.532013 311.459015,331.843628 
M254.274918,342.579376 
	C255.479950,343.159760 256.970093,344.465332 257.816193,344.132690 
	C258.821381,343.737518 259.707214,341.989471 259.869171,340.728088 
	C260.161682,338.449371 260.126709,336.051819 259.719299,333.795868 
	C259.543762,332.823944 257.966614,331.294952 257.260773,331.413666 
	C256.123962,331.604889 254.464859,332.831665 254.296921,333.833862 
	C253.864090,336.416931 254.127289,339.116669 254.274918,342.579376 
M218.849304,340.753540 
	C218.461914,339.163116 217.977661,337.588287 217.718750,335.977203 
	C217.522385,334.755341 218.065155,333.120514 217.440094,332.350067 
	C216.891342,331.673706 214.579132,331.392578 214.102127,331.910217 
	C213.125076,332.970520 212.516220,334.658752 212.407578,336.136353 
	C212.325455,337.253601 213.949371,339.179016 213.623795,339.487183 
	C211.127884,341.849365 212.350647,343.709869 214.631424,344.311890 
	C215.704117,344.595062 217.409256,342.482391 218.849304,340.753540 
M228.363892,331.135284 
	C223.801910,334.164856 226.517975,338.561951 226.510895,342.352997 
	C226.509735,342.967926 229.148514,343.587830 229.974518,343.947449 
	C230.192810,340.164581 229.676941,336.806335 230.751816,334.073853 
	C231.747238,331.543365 231.178802,331.284058 228.363892,331.135284 
M294.002136,338.388123 
	C293.987946,341.678375 293.832764,345.108337 298.002472,343.772736 
	C298.258057,339.524933 298.484924,335.754639 298.721527,331.822205 
	C294.386230,330.480133 294.123291,330.747833 294.002136,338.388123 
M202.795410,331.873657 
	C202.568100,335.698578 202.340775,339.523499 202.113464,343.348419 
	C202.861725,343.341553 203.610001,343.334686 204.358261,343.327850 
	C204.890198,339.422943 206.304764,335.510315 202.795410,331.873657 
z"/>
<path fill="#4A87CE" opacity="1.000000" stroke="none" 
	d="
M304.793152,233.704880 
	C294.978333,246.040070 277.436005,247.553299 264.861847,237.933777 
	C259.482300,233.818314 256.071228,228.226807 255.081207,221.527237 
	C251.981827,200.553375 266.966553,186.923996 283.843262,187.859833 
	C295.952271,188.531296 304.130005,194.522919 308.774231,204.875687 
	C313.194366,214.729004 311.997192,224.665054 304.793152,233.704880 
M284.269257,199.001511 
	C275.489441,199.048996 268.737000,203.670334 266.237000,211.342697 
	C264.322388,217.218567 267.816681,225.883514 273.915100,230.382538 
	C278.970673,234.112152 286.731384,233.806595 292.800385,229.638901 
	C297.896820,226.139084 300.706360,218.003113 299.147308,212.383514 
	C297.110016,205.040039 292.622894,200.503769 284.269257,199.001511 
z"/>
<path fill="#4A87CE" opacity="1.000000" stroke="none" 
	d="
M199.251190,196.250397 
	C208.823441,184.829483 229.517258,185.724121 239.366791,195.657288 
	C249.062927,205.435776 250.443420,225.552567 239.285034,236.145569 
	C228.535248,246.350693 209.918655,247.027191 198.559677,235.445847 
	C189.068909,225.769333 188.169830,205.411194 199.251190,196.250397 
M215.232407,199.298752 
	C204.880920,202.429672 198.100342,214.157379 204.942032,224.973709 
	C209.376373,231.984161 219.679550,235.202026 226.885117,230.972794 
	C234.685303,226.394531 238.713120,216.917953 234.272476,208.617477 
	C230.266861,201.130112 224.052658,198.548859 215.232407,199.298752 
z"/>
<path fill="#211D1D" opacity="1.000000" stroke="none" 
	d="
M162.000000,246.945404 
	C161.994812,240.622223 161.941681,234.789352 162.000961,228.957611 
	C162.041656,224.952271 160.549286,222.163452 156.386917,221.336380 
	C153.337906,220.730545 151.056900,219.521149 151.063934,215.881088 
	C151.070740,212.354599 153.140411,210.710526 156.224960,210.207596 
	C160.828262,209.457016 162.079239,206.557861 162.024414,202.356400 
	C161.922226,194.525772 161.858307,186.688858 162.056351,178.861588 
	C162.295456,169.411270 169.008240,163.502396 178.413818,164.000427 
	C181.744370,164.176804 183.803253,165.443008 183.943726,169.019653 
	C184.071854,172.281708 182.996613,174.636078 179.389191,174.941849 
	C174.531677,175.353546 172.910095,178.248749 172.984161,182.740280 
	C173.074799,188.237885 173.503586,193.794327 172.895538,199.225616 
	C171.632553,210.507019 171.881378,221.705444 172.917572,232.972946 
	C173.403885,238.261139 173.038574,243.630508 173.005508,248.962738 
	C172.978088,253.384918 174.686432,256.375763 179.392731,256.990234 
	C182.936691,257.452942 184.076813,259.683350 183.947006,262.965088 
	C183.800415,266.671600 181.330704,267.686768 178.250595,267.925201 
	C169.398422,268.610382 162.666824,262.801575 162.063187,253.933212 
	C161.916367,251.776093 162.014496,249.602310 162.000000,246.945404 
z"/>
<path fill="#211D1D" opacity="1.000000" stroke="none" 
	d="
M344.933044,210.052643 
	C348.567352,210.724609 350.937958,212.103653 350.934143,215.924820 
	C350.930542,219.575531 348.602051,220.738815 345.575684,221.347214 
	C341.403961,222.185867 339.973083,225.002258 339.997620,228.990875 
	C340.046722,236.984802 340.124023,244.982162 339.950684,252.972916 
	C339.751129,262.172577 333.840027,267.901093 324.722778,267.927673 
	C321.580139,267.936859 318.558655,267.435211 318.106232,263.441406 
	C317.684296,259.716522 319.086060,257.412201 323.110657,256.870392 
	C327.298737,256.306610 328.955017,253.446274 328.969116,249.453125 
	C328.991486,243.124405 328.363861,236.717102 329.144196,230.484894 
	C330.371979,220.679520 330.124786,211.024811 329.116455,201.242615 
	C328.487915,195.144897 328.926910,188.929001 329.017273,182.768051 
	C329.082916,178.292236 327.509460,175.360199 322.644501,174.948517 
	C319.048279,174.644196 317.936035,172.331039 318.054138,169.058487 
	C318.182709,165.496170 320.199005,164.188080 323.542542,164.001770 
	C332.937653,163.478256 339.694305,169.379395 339.939880,178.804428 
	C340.148041,186.793549 339.965118,194.792236 340.030579,202.786057 
	C340.057312,206.052368 340.343506,209.278687 344.933044,210.052643 
z"/>
<path fill="#4A87CE" opacity="1.000000" stroke="none" 
	d="
M131.997620,299.939087 
	C132.458176,301.887848 132.908234,303.435699 133.515930,305.525696 
	C134.755997,300.795532 135.716202,296.477295 137.097641,292.298279 
	C137.469223,291.174194 138.993134,290.183228 140.214447,289.642517 
	C142.355637,288.694550 143.603027,289.257141 144.095367,291.987671 
	C144.838715,296.110260 146.214584,300.118805 147.582214,305.130768 
	C149.006668,299.235321 150.214279,294.237305 151.346924,289.549591 
	C153.440079,289.549591 155.437408,289.549591 157.887329,289.549591 
	C155.417297,298.846466 152.898697,308.326141 150.376190,317.820526 
	C148.459686,317.724030 146.459900,317.623352 144.524750,317.525940 
	C143.278458,312.422943 141.988098,307.139526 140.330872,300.353912 
	C138.805984,307.016510 137.614746,312.221283 136.399338,317.531677 
	C134.612457,317.531677 132.518280,317.531677 130.365982,317.531677 
	C127.806587,308.334778 125.205437,298.987854 122.594620,289.606171 
	C132.172546,287.676788 129.533890,295.798981 131.997620,299.939087 
z"/>
<path fill="#211D1D" opacity="1.000000" stroke="none" 
	d="
M249.306702,290.368561 
	C256.253265,294.917816 258.463226,300.967468 256.092896,308.134552 
	C253.980621,314.521362 248.411835,318.289062 241.548370,317.975098 
	C235.290024,317.688843 229.987534,313.252350 228.500366,306.794006 
	C227.223785,301.250092 229.231613,296.359161 233.069061,292.694916 
	C237.537445,288.428253 243.184189,288.048615 249.306702,290.368561 
M249.745010,305.882446 
	C249.788330,304.560547 250.047302,303.202881 249.835159,301.923340 
	C249.154251,297.816284 246.708496,295.345673 242.479782,295.159241 
	C238.629471,294.989502 235.441956,298.231384 235.094208,302.451019 
	C234.744888,306.689728 236.141632,310.165314 240.437347,311.472961 
	C244.819687,312.806946 247.764160,310.651337 249.745010,305.882446 
z"/>
<path fill="#4A87CE" opacity="1.000000" stroke="none" 
	d="
M198.057205,316.397369 
	C196.962128,316.860107 196.135010,316.971161 195.349197,317.215240 
	C184.052643,320.723175 180.999771,318.625610 181.000092,307.332245 
	C181.000244,302.513855 180.836929,297.685913 181.114777,292.883545 
	C181.186890,291.636993 182.647919,289.434845 183.457825,289.440887 
	C187.641785,289.472015 191.838074,289.964874 195.989014,290.575745 
	C196.851883,290.702728 198.161362,291.972992 198.209198,292.779022 
	C198.508820,297.828247 200.241074,302.413483 201.863556,307.128967 
	C203.056351,310.595581 201.629547,313.936127 198.057205,316.397369 
M188.897980,312.319580 
	C191.012909,311.623352 193.212906,311.097076 195.182724,310.111053 
	C195.673111,309.865570 195.816788,307.411957 195.442795,307.206573 
	C193.357788,306.061981 191.064636,305.296570 187.955017,304.043945 
	C188.109863,307.533966 188.203156,309.636719 188.897980,312.319580 
M188.003128,296.579407 
	C188.120682,297.674957 188.238235,298.770508 188.465179,300.885590 
	C190.366852,299.486084 191.837463,298.679291 192.829498,297.477448 
	C193.073425,297.181946 191.959702,295.116272 191.095856,294.752075 
	C190.342865,294.434570 189.062408,295.368225 188.003128,296.579407 
z"/>
<path fill="#211D1D" opacity="1.000000" stroke="none" 
	d="
M281.998199,296.210388 
	C281.992523,302.003357 282.123718,307.333191 281.885193,312.646454 
	C281.823029,314.030914 280.679230,316.438843 279.907623,316.489777 
	C278.432617,316.587189 276.367310,315.727844 275.436310,314.557892 
	C272.816315,311.265533 270.647766,307.613922 268.301239,304.103973 
	C267.863983,304.225250 267.426758,304.346497 266.989502,304.467773 
	C266.989502,307.046600 267.370056,309.704376 266.857147,312.176788 
	C266.509094,313.854614 264.907135,315.272278 263.865936,316.806305 
	C262.916016,315.348206 261.226074,313.929230 261.146484,312.425049 
	C260.830505,306.452698 260.862640,300.446838 261.129425,294.469604 
	C261.194580,293.009460 262.680603,290.405701 263.442444,290.431366 
	C265.099976,290.487213 267.193115,291.514282 268.245392,292.832916 
	C270.679443,295.883057 272.600342,299.342682 274.729340,302.636230 
	C275.153931,302.527710 275.578522,302.419159 276.003113,302.310638 
	C276.003113,300.080048 275.639648,297.768951 276.110748,295.642761 
	C276.536499,293.721252 277.695709,290.595001 278.842316,290.449493 
	C282.728027,289.956421 281.722870,293.438995 281.998199,296.210388 
z"/>
<path fill="#211D1D" opacity="1.000000" stroke="none" 
	d="
M294.934204,313.596985 
	C293.782196,314.948090 292.661499,315.872284 291.540802,316.796478 
	C290.705017,315.565948 289.196960,314.362061 289.146912,313.100342 
	C288.896484,306.790314 288.902008,300.460571 289.127869,294.148865 
	C289.175476,292.818573 290.306122,290.716400 291.330292,290.443604 
	C292.523590,290.125763 294.671967,291.027466 295.488525,292.099030 
	C298.077240,295.496155 300.238525,299.218933 302.565063,302.815826 
	C303.052155,302.757874 303.539246,302.699890 304.026337,302.641937 
	C304.026337,299.807526 303.727875,296.927612 304.150085,294.157562 
	C304.366852,292.734985 305.869812,291.508423 306.791534,290.193268 
	C307.852753,291.536804 309.753448,292.834167 309.830292,294.231812 
	C310.167480,300.366974 310.100342,306.535431 309.883270,312.681366 
	C309.834839,314.052216 308.674103,316.435089 307.873169,316.500977 
	C306.376434,316.624084 304.262268,315.807404 303.303497,314.642303 
	C300.688812,311.464844 298.542389,307.902100 294.965515,304.629425 
	C294.965515,307.476288 294.965515,310.323181 294.934204,313.596985 
z"/>
<path fill="#211D1D" opacity="1.000000" stroke="none" 
	d="
M265.561401,172.454407 
	C260.154572,176.116058 256.798035,175.370926 253.870193,170.224060 
	C249.385483,162.340454 251.962021,147.416489 259.048065,141.704361 
	C260.216003,140.762894 262.778351,140.217133 263.883698,140.868164 
	C265.281250,141.691284 266.983765,144.311707 266.585388,145.492569 
	C264.033203,153.058197 263.982727,160.395035 266.734467,167.896118 
	C267.154388,169.040771 266.139191,170.711914 265.561401,172.454407 
z"/>
<path fill="#211D1D" opacity="1.000000" stroke="none" 
	d="
M241.789429,142.748199 
	C244.067856,141.963867 247.164474,140.401764 247.889359,141.146896 
	C249.292358,142.589111 250.328873,145.602325 249.801956,147.484085 
	C248.094284,153.582550 247.386139,159.384323 249.898071,165.461685 
	C251.533249,169.417831 249.988998,172.890823 246.116882,174.493591 
	C242.159500,176.131683 239.441422,173.785507 237.720123,170.325439 
	C232.768356,160.371582 234.944168,151.374252 241.789429,142.748199 
z"/>
<path fill="#211D1D" opacity="1.000000" stroke="none" 
	d="
M343.048584,308.884827 
	C347.276794,313.532776 351.710754,311.415588 356.042358,309.488556 
	C358.035126,313.953308 356.408386,316.281097 352.619080,317.517609 
	C343.713959,320.423645 335.139862,314.255707 335.003723,304.885345 
	C334.839783,293.595734 341.386108,287.539642 352.040955,289.124023 
	C356.753967,289.824860 357.648285,291.487274 355.768463,296.545258 
	C351.288910,295.624817 346.276520,293.042084 342.732361,298.234619 
	C340.490173,301.519592 340.550964,305.141205 343.048584,308.884827 
z"/>
<path fill="#211D1D" opacity="1.000000" stroke="none" 
	d="
M212.326233,309.638733 
	C216.562500,310.389862 220.525696,310.865814 224.488892,311.341797 
	C226.503387,312.836304 226.510437,315.280518 222.867493,316.855499 
	C217.584274,319.139648 209.754440,317.757660 206.677109,313.923096 
	C202.629013,308.878876 202.256882,300.081451 205.865250,294.729340 
	C208.751923,290.447754 217.006912,287.627441 221.950256,289.333069 
	C225.892517,290.693359 225.115250,293.654694 224.452637,297.037018 
	C219.918503,294.951477 215.450348,293.533936 211.964691,297.869781 
	C209.030457,301.519684 209.290802,305.551147 212.326233,309.638733 
z"/>
<path fill="#211D1D" opacity="1.000000" stroke="none" 
	d="
M329.166138,295.206970 
	C327.956512,295.135040 326.965515,294.800323 326.332336,295.137482 
	C325.197388,295.741821 324.277679,296.750366 323.268005,297.589966 
	C324.335754,298.337830 325.332214,299.242706 326.498962,299.772522 
	C327.160889,300.073059 328.101837,299.759003 329.093262,299.713684 
	C330.212036,302.292938 330.493195,304.484070 327.053070,304.873688 
	C324.190094,305.197937 322.262238,306.505707 323.339630,309.232849 
	C323.868530,310.571625 326.445923,311.298309 328.234222,311.871735 
	C329.390717,312.242523 330.797058,311.834167 331.957245,311.781128 
	C332.286133,312.294128 332.659210,312.614960 332.606079,312.830963 
	C330.683899,320.648071 324.468719,315.901611 320.269836,316.852661 
	C316.665558,317.669037 315.946350,314.901550 315.985748,311.853210 
	C316.065247,305.702606 316.057098,299.549957 316.001495,293.398865 
	C315.973145,290.259155 317.098969,288.865540 320.506073,289.242554 
	C323.272827,289.548645 326.144409,288.908875 328.910553,289.217407 
	C329.982574,289.336975 331.624146,290.866486 331.682190,291.833252 
	C331.747711,292.924438 330.322723,294.105133 329.166138,295.206970 
z"/>
<path fill="#4A87CE" opacity="1.000000" stroke="none" 
	d="
M161.000061,311.856079 
	C161.000000,304.076355 161.000000,296.783051 161.000000,289.434265 
	C166.460587,289.434265 171.552872,289.434265 177.008560,289.434265 
	C176.564880,291.442505 176.126434,293.427063 175.726913,295.235474 
	C172.933914,295.235474 170.351898,295.235474 167.347092,295.235474 
	C167.222290,296.514618 167.086731,297.903809 166.915390,299.659729 
	C169.544800,299.659729 171.862869,299.659729 174.644897,299.659729 
	C174.785492,301.314972 174.918610,302.882233 175.081238,304.796967 
	C172.387756,304.927216 169.953949,305.044891 167.271606,305.174561 
	C167.271606,307.441101 167.271606,309.495728 167.271606,311.740509 
	C170.517273,311.740509 173.552750,311.740509 176.792053,311.740509 
	C176.792053,313.141022 176.792053,314.769684 176.792053,316.699799 
	C171.746140,316.699799 166.679352,316.699799 161.270935,316.699799 
	C161.179092,315.222290 161.089600,313.782379 161.000061,311.856079 
z"/>
<path fill="#211D1D" opacity="1.000000" stroke="none" 
	d="
M363.784454,295.634033 
	C360.175262,295.242889 357.797729,294.364777 359.924652,289.502411 
	C365.140503,289.502411 370.728790,289.403198 376.306122,289.605591 
	C377.177979,289.637238 378.824127,291.287018 378.682434,291.761932 
	C378.331573,292.937927 377.205811,294.693665 376.296814,294.752350 
	C372.280304,295.011688 371.914215,297.459656 371.979614,300.587799 
	C372.069946,304.909332 372.237366,309.257050 371.846466,313.545654 
	C371.711060,315.031494 370.008606,316.374481 369.021912,317.782715 
	C367.699554,316.392151 365.387482,315.101532 365.235107,313.592804 
	C364.719452,308.486328 365.002289,303.301849 364.890045,298.149139 
	C364.873199,297.376282 364.375549,296.613892 363.784454,295.634033 
z"/>
<path fill="#342F2F" opacity="1.000000" stroke="none" 
	d="
M280.296875,331.560516 
	C282.118622,331.777679 283.697174,332.132965 286.385315,332.738037 
	C286.213928,334.966614 286.176025,338.479492 285.523895,341.874329 
	C285.354950,342.753662 283.326233,343.662811 282.041321,343.868591 
	C278.081421,344.502808 276.950409,341.516632 277.235809,338.665680 
	C277.472992,336.296570 274.301880,331.970795 280.296875,331.560516 
z"/>
<path fill="#342F2F" opacity="1.000000" stroke="none" 
	d="
M245.997559,338.724335 
	C245.891144,340.457550 245.786026,341.762329 245.659058,343.338501 
	C243.633286,343.338501 241.783020,343.338501 239.080536,343.338501 
	C239.080536,340.010620 238.733231,336.554230 239.238403,333.227325 
	C239.464661,331.737244 241.399643,330.506622 242.559204,329.158295 
	C243.681839,330.546173 245.193680,331.782074 245.812424,333.366699 
	C246.377304,334.813477 245.974930,336.637909 245.997559,338.724335 
z"/>
<path fill="#342F2F" opacity="1.000000" stroke="none" 
	d="
M190.881958,331.156342 
	C194.497192,332.676453 196.808884,340.373016 194.323807,342.674805 
	C193.258774,343.661285 190.114426,343.683350 188.786438,342.813293 
	C186.654694,341.416626 188.187424,332.868469 190.881958,331.156342 
z"/>
<path fill="#342F2F" opacity="1.000000" stroke="none" 
	d="
M311.799072,332.006622 
	C312.608215,335.532013 313.240021,338.888245 313.366974,342.263519 
	C313.385590,342.757416 310.984467,343.780396 309.732117,343.736023 
	C308.838715,343.704346 307.366302,342.378723 307.246674,341.484161 
	C306.901245,338.900421 306.919830,336.225891 307.150085,333.618347 
	C307.415436,330.613129 309.385651,330.906128 311.799072,332.006622 
z"/>
<path fill="#342F2F" opacity="1.000000" stroke="none" 
	d="
M254.193665,342.174561 
	C254.127289,339.116669 253.864090,336.416931 254.296921,333.833862 
	C254.464859,332.831665 256.123962,331.604889 257.260773,331.413666 
	C257.966614,331.294952 259.543762,332.823944 259.719299,333.795868 
	C260.126709,336.051819 260.161682,338.449371 259.869171,340.728088 
	C259.707214,341.989471 258.821381,343.737518 257.816193,344.132690 
	C256.970093,344.465332 255.479950,343.159760 254.193665,342.174561 
z"/>
<path fill="#342F2F" opacity="1.000000" stroke="none" 
	d="
M218.838562,341.104462 
	C217.409256,342.482391 215.704117,344.595062 214.631424,344.311890 
	C212.350647,343.709869 211.127884,341.849365 213.623795,339.487183 
	C213.949371,339.179016 212.325455,337.253601 212.407578,336.136353 
	C212.516220,334.658752 213.125076,332.970520 214.102127,331.910217 
	C214.579132,331.392578 216.891342,331.673706 217.440094,332.350067 
	C218.065155,333.120514 217.522385,334.755341 217.718750,335.977203 
	C217.977661,337.588287 218.461914,339.163116 218.838562,341.104462 
z"/>
<path fill="#342F2F" opacity="1.000000" stroke="none" 
	d="
M228.744370,331.113220 
	C231.178802,331.284058 231.747238,331.543365 230.751816,334.073853 
	C229.676941,336.806335 230.192810,340.164581 229.974518,343.947449 
	C229.148514,343.587830 226.509735,342.967926 226.510895,342.352997 
	C226.517975,338.561951 223.801910,334.164856 228.744370,331.113220 
z"/>
<path fill="#342F2F" opacity="1.000000" stroke="none" 
	d="
M294.001587,337.941986 
	C294.123291,330.747833 294.386230,330.480133 298.721527,331.822205 
	C298.484924,335.754639 298.258057,339.524933 298.002472,343.772736 
	C293.832764,345.108337 293.987946,341.678375 294.001587,337.941986 
z"/>
<path fill="#342F2F" opacity="1.000000" stroke="none" 
	d="
M203.151642,331.754089 
	C206.304764,335.510315 204.890198,339.422943 204.358261,343.327850 
	C203.610001,343.334686 202.861725,343.341553 202.113464,343.348419 
	C202.340775,339.523499 202.568100,335.698578 203.151642,331.754089 
z"/>
<path fill="#000000" opacity="1.000000" stroke="none" 
	d="
M284.695190,199.005157 
	C292.622894,200.503769 297.110016,205.040039 299.147308,212.383514 
	C300.706360,218.003113 297.896820,226.139084 292.800385,229.638901 
	C286.731384,233.806595 278.970673,234.112152 273.915100,230.382538 
	C267.816681,225.883514 264.322388,217.218567 266.237000,211.342697 
	C268.737000,203.670334 275.489441,199.048996 284.695190,199.005157 
z"/>
<path fill="#000000" opacity="1.000000" stroke="none" 
	d="
M215.636261,199.174774 
	C224.052658,198.548859 230.266861,201.130112 234.272476,208.617477 
	C238.713120,216.917953 234.685303,226.394531 226.885117,230.972794 
	C219.679550,235.202026 209.376373,231.984161 204.942032,224.973709 
	C198.100342,214.157379 204.880920,202.429672 215.636261,199.174774 
z"/>
<path fill="#000000" opacity="1.000000" stroke="none" 
	d="
M249.633911,306.263763 
	C247.764160,310.651337 244.819687,312.806946 240.437347,311.472961 
	C236.141632,310.165314 234.744888,306.689728 235.094208,302.451019 
	C235.441956,298.231384 238.629471,294.989502 242.479782,295.159241 
	C246.708496,295.345673 249.154251,297.816284 249.835159,301.923340 
	C250.047302,303.202881 249.788330,304.560547 249.633911,306.263763 
z"/>
<path fill="#000000" opacity="1.000000" stroke="none" 
	d="
M188.597214,312.029541 
	C188.203156,309.636719 188.109863,307.533966 187.955017,304.043945 
	C191.064636,305.296570 193.357788,306.061981 195.442795,307.206573 
	C195.816788,307.411957 195.673111,309.865570 195.182724,310.111053 
	C193.212906,311.097076 191.012909,311.623352 188.597214,312.029541 
z"/>
<path fill="#000000" opacity="1.000000" stroke="none" 
	d="
M188.009079,296.164246 
	C189.062408,295.368225 190.342865,294.434570 191.095856,294.752075 
	C191.959702,295.116272 193.073425,297.181946 192.829498,297.477448 
	C191.837463,298.679291 190.366852,299.486084 188.465179,300.885590 
	C188.238235,298.770508 188.120682,297.674957 188.009079,296.164246 
z"/>
</svg>